<?xml version="1.0" encoding="UTF-8"?>
<svg id="Layer_2" data-name="Layer 2" xmlns="http://www.w3.org/2000/svg" xmlns:xlink="http://www.w3.org/1999/xlink" viewBox="0 0 210.94 301.84">
  <defs>
    <style>
      .cls-1 {
        fill: none;
      }

      .cls-2 {
        clip-path: url(#clippath);
      }

      .cls-3 {
        fill: #43240f;
      }

      .cls-4 {
        fill: #392317;
      }
    </style>
    <clipPath id="clippath">
      <path class="cls-1" d="m145.61,297.42c-37.85,12.19-82.76-1.21-110.13-35.49C.03,217.53-8.06,150.45,7.67,96.84c1.22-4.17,2.6-8.29,4.17-12.35,6.81-17.62,22.46-54.88,44.5-56.58,15.91-1.22,14.65-2.88,23.15-14.96,6.66-9.46,14.33-15.27,26.38-12.08,8.05,2.13,14.85,7.43,21.14,12.89,53.96,46.83,88.33,117.91,83.48,189.19-1.27,18.72-5.28,37.61-14.84,53.75-12.42,20.99-30.27,34.34-50.04,40.7Z"/>
    </clipPath>
  </defs>
  <g id="seed">
    <path class="cls-3" d="m145.61,297.42c-37.85,12.19-82.76-1.21-110.13-35.49C.03,217.53-8.06,150.45,7.67,96.84c1.22-4.17,2.6-8.29,4.17-12.35,6.81-17.62,22.46-54.88,44.5-56.58,15.91-1.22,14.65-2.88,23.15-14.96,6.66-9.46,14.33-15.27,26.38-12.08,8.05,2.13,14.85,7.43,21.14,12.89,53.96,46.83,88.33,117.91,83.48,189.19-1.27,18.72-5.28,37.61-14.84,53.75-12.42,20.99-30.27,34.34-50.04,40.7Z"/>
    <g class="cls-2">
      <path class="cls-4" d="m114.94,258.11c25.4-7.72,42.88-31.85,51.24-58.2,12.75-40.14,4.93-79.42-9.95-117.69-7.08-18.2-18.51-36.16-20.52-55.94-.11-1.1-.15-2.3.48-3.22.79-1.15,2.33-1.45,3.72-1.59,23.09-2.33,44.39,13.33,58.74,31.58,12.55,15.97,29.55,37.13,35.42,56.76,5.96,19.91,8.32,43.04,10.3,63.65,3.55,37.11,3.72,74.55.5,111.69-2.07,23.86-5.65,48.03-15.94,69.66-6.84,14.38-16.96,27.71-30.87,35.44-10.54,5.86-22.66,8.21-34.63,9.72-21.71,2.73-45.13,3.11-65.76-5.24-15.83-6.4-33.87-8.12-48.78-16.26-19.41-10.66-37.7-28.42-52.43-44.68-3.09-3.41-6.19-6.84-8.73-10.68-8.15-12.35-9.76-28.22-6.82-42.72,2.94-14.5,10.06-27.84,18.25-40.16,4.61-6.94,10.17-14.05,18.16-16.39,14.5-4.25,22.65,15.45,32.83,22.43,12.07,8.27,27.43,13,41.94,14.19,8.21.68,15.84-.2,22.87-2.34Z"/>
    </g>
  </g>
</svg>