<?xml version="1.0" encoding="UTF-8"?>
<svg id="Layer_2" data-name="Layer 2" xmlns="http://www.w3.org/2000/svg" xmlns:xlink="http://www.w3.org/1999/xlink" viewBox="0 0 307.31 395.9">
  <defs>
    <style>
      .cls-1 {
        fill: none;
      }

      .cls-2 {
        clip-path: url(#clippath);
      }

      .cls-3 {
        fill: #f7dfaf;
      }

      .cls-4 {
        fill: #efd195;
      }

      .cls-5 {
        fill: #edd6ae;
      }

      .cls-6 {
        fill: #edca91;
      }

      .cls-7 {
        clip-path: url(#clippath-1);
      }
    </style>
    <clipPath id="clippath">
      <path class="cls-1" d="m178.35,17.2c38.16,41.37,70.73,87.88,96.55,137.88,22.47,43.5,40.14,93.15,28.94,140.82-12.63,53.76-64.87,95.49-120.1,95.91-8.04.06-16.48-.79-23.17-5.25-6.24-4.16-10.18-10.92-13.64-17.58-39.17-75.45-40.55-159.92-40.43-242.85.04-27.38-5.6-55.64,1.16-82.48,9.9-39.36,38.97-60.82,70.68-26.44Z"/>
    </clipPath>
    <clipPath id="clippath-1">
      <path class="cls-1" d="m130.94,395.6C32.37,382.15-8.7,310.76,1.52,220.94,12.31,156.47,57.18,65.09,98.86,47.79c54.8-19.06,111.48,360.27,32.07,347.81Z"/>
    </clipPath>
  </defs>
  <g id="meat">
    <g id="meat2">
      <g>
        <path class="cls-5" d="m178.35,17.2c38.16,41.37,70.73,87.88,96.55,137.88,22.47,43.5,40.14,93.15,28.94,140.82-12.63,53.76-64.87,95.49-120.1,95.91-8.04.06-16.48-.79-23.17-5.25-6.24-4.16-10.18-10.92-13.64-17.58-39.17-75.45-40.55-159.92-40.43-242.85.04-27.38-5.6-55.64,1.16-82.48,9.9-39.36,38.97-60.82,70.68-26.44Z"/>
        <g class="cls-2">
          <path class="cls-6" d="m175.41-20.8c-23.22,12.65,2.47,47.74,9.78,60.43,14.83,25.73,27.26,52.85,37.13,80.86,22.58,64.02,42.17,143.8,13.34,207.68-10.59,23.47-23.78,45.65-36.46,68.03-1.58,2.79-3.2,6.11-1.97,9.08,1.15,2.78,4.34,4.05,7.26,4.78,28.05,7.07,56.69-8.79,79-27.21,31.92-26.36,58.51-59.61,74.78-97.67,16.27-38.06,21.91-81.01,13.44-121.52-4.49-21.46-12.77-41.9-19.63-62.72-7.07-21.44-12.71-43.46-22.31-63.9-12.49-26.59-31.63-50.02-55.2-67.55-8.32-6.19-17.36-11.73-27.4-14.29-18.39-4.69-37.66,1.06-55.76,6.77-13.31,4.19-28.82,10.79-31.13,24.55"/>
        </g>
      </g>
    </g>
    <g id="_1" data-name="1">
      <path class="cls-4" d="m130.94,395.6C32.37,382.15-8.7,310.76,1.52,220.94,12.31,156.47,57.18,65.09,98.86,47.79c54.8-19.06,111.48,360.27,32.07,347.81Z"/>
      <path class="cls-3" d="m13.81,284.75c-3.88-15.51-2.92-32.13-.57-48.24,6.74-46.22,24.84-90.79,51.16-128.86,2.03-2.93,4.56-6.11,7.91-6.3,5.43-.31,7.82,6.9,8.4,12.65,5.27,51.85-7.76,104.53-8.27,156.91-.15,14.93.72,29.93-1.39,44.77-1.11,7.82-4.63,19.42-13.83,19.77-6.06.23-13.43-6.7-17.92-10.43-12.15-10.07-21.46-24.17-25.49-40.27Z"/>
      <g class="cls-7">
        <path class="cls-6" d="m139.51,292.86c-1.09,4.9-2.46,9.85-4.14,14.89-8.6,25.77-21.21,48.79-39.33,68.55-3.96,4.32-8.5,9.88-6.82,15.48.68,2.26,2.3,4.01,3.98,5.55,22.19,20.37,66.65,19.68,93.86,10.24,20.16-7,37.02-23.17,49.35-41.89,36.47-55.36,37.47-147.61,17.75-208.7-10.87-33.69-39.18-67.54-61.71-92.77-19.77-22.14-36.79-35.93-66.38-38.17-15.75-1.19-30.32,4.86-29.12,24.28.91,14.74,11.83,26.91,16.49,40.49,20.74,60.36,40.71,136.45,26.06,202.07Z"/>
      </g>
    </g>
  </g>
</svg>